<svg width="12" height="10" viewBox="0 0 12 10" fill="none" xmlns="http://www.w3.org/2000/svg">
<path d="M0 8.51359V1.48561C0.00677944 1.47681 0.012175 1.46704 0.016 1.45662C0.0508255 1.20648 0.177563 0.97828 0.371501 0.816511C0.565439 0.654742 0.812674 0.571002 1.065 0.581618C2.285 0.581618 3.505 0.581618 4.725 0.581618C4.76732 0.579159 4.80961 0.586972 4.84827 0.604384C4.88692 0.621796 4.9208 0.648266 4.947 0.681593C5.215 1.00559 5.489 1.3236 5.756 1.6486C5.77774 1.67804 5.80654 1.70152 5.83974 1.7169C5.87295 1.73228 5.90949 1.73907 5.946 1.73662C7.436 1.73662 8.92633 1.73662 10.417 1.73662C10.5295 1.73452 10.6417 1.74694 10.751 1.7736C10.98 1.82725 11.1832 1.95884 11.3259 2.14583C11.4685 2.33281 11.5418 2.56357 11.533 2.7986C11.533 4.65326 11.533 6.50762 11.533 8.36162C11.5332 8.5223 11.4991 8.68117 11.433 8.82762C11.3479 9.01535 11.2072 9.17244 11.03 9.27775C10.8528 9.38307 10.6476 9.43154 10.442 9.41661C7.334 9.41661 4.226 9.41661 1.118 9.41661C1.062 9.41661 1.005 9.4166 0.949 9.4106C0.81236 9.39923 0.679414 9.36044 0.55811 9.29652C0.436807 9.23261 0.329635 9.14489 0.243 9.03862C0.122062 8.88503 0.0388328 8.70519 0 8.51359Z" fill="black"/>
<path d="M5.89698 2.81161C6.02398 2.83961 6.15502 2.85761 6.27802 2.89761C6.64926 3.02317 6.96178 3.28004 7.15687 3.61992C7.35196 3.95981 7.41617 4.35926 7.33735 4.74314C7.25852 5.12702 7.04212 5.46887 6.72889 5.70438C6.41565 5.93988 6.02715 6.05281 5.63648 6.02191C5.24581 5.99102 4.87988 5.81843 4.60755 5.53662C4.33523 5.25481 4.17529 4.8832 4.15778 4.4917C4.14028 4.1002 4.26643 3.71579 4.51252 3.4108C4.75861 3.10581 5.10767 2.90125 5.49403 2.83561L5.63502 2.81161H5.89698Z" fill="white"/>
<path d="M5.76799 8.91163H3.30296C3.15196 8.91163 3.08496 8.84362 3.08696 8.69362C3.09574 8.15637 3.28843 7.63839 3.63292 7.22602C3.9774 6.81366 4.45285 6.53186 4.97996 6.42762C5.10465 6.40408 5.23109 6.39103 5.35795 6.38862C5.61795 6.38262 5.87798 6.38862 6.13798 6.38862C6.6446 6.39492 7.13541 6.56569 7.53654 6.87519C7.93767 7.1847 8.22739 7.61618 8.36198 8.10463C8.41569 8.3002 8.44421 8.50183 8.44694 8.70463C8.45095 8.73288 8.44835 8.76168 8.43931 8.78874C8.43028 8.8158 8.41505 8.84037 8.39488 8.86055C8.37471 8.88072 8.3501 8.89594 8.32304 8.90498C8.29598 8.91402 8.26724 8.91664 8.239 8.91264H5.76799" fill="white"/>
</svg>
