<svg width="12" height="10" viewBox="0 0 12 10" fill="none" xmlns="http://www.w3.org/2000/svg">
<g clip-path="url(#clip0_582_279)">
<path d="M9.944 0.580505H1.1C0.808262 0.580505 0.528473 0.696398 0.322183 0.902688C0.115893 1.10898 0 1.38877 0 1.68051V8.31451C0.00209426 8.6056 0.118659 8.88417 0.324497 9.09001C0.530335 9.29585 0.808909 9.41241 1.1 9.41451H9.939C10.2301 9.41241 10.5087 9.29585 10.7145 9.09001C10.9203 8.88417 11.0369 8.6056 11.039 8.31451V1.68051C11.0369 1.39027 10.921 1.11244 10.7163 0.906742C10.5115 0.701043 10.2342 0.583903 9.944 0.580505ZM9.944 2.79051L5.525 5.55251L1.1 2.79051V1.68051L5.52 4.44251L9.944 1.68051V2.79051Z" fill="black"/>
</g>
<defs>
<clipPath id="clip0_582_279">
<rect width="11.049" height="8.839" fill="white" transform="translate(0 0.580505)"/>
</clipPath>
</defs>
</svg>
